<?xml version="1.0" encoding="UTF-8" standalone="no"?>
<!DOCTYPE svg PUBLIC "-//W3C//DTD SVG 1.1//EN" "http://www.w3.org/Graphics/SVG/1.1/DTD/svg11.dtd">
<svg width="100%" height="100%" viewBox="0 0 255 200" version="1.1" xmlns="http://www.w3.org/2000/svg" xmlns:xlink="http://www.w3.org/1999/xlink" xml:space="preserve" xmlns:serif="http://www.serif.com/" style="fill-rule:evenodd;clip-rule:evenodd;stroke-linejoin:round;stroke-miterlimit:2;">
    <g transform="matrix(8.31761,0,0,8.333333,-4.158805,0)">
        <path d="M31.056,4.979L31.056,0.215L25.326,3.223L25.326,3.045C25.326,1.146 23.965,0 21.994,0L3.831,0C1.755,0 0.5,1.146 0.5,3.045L0.5,7.845L8.523,12L0.5,16.191L0.5,20.991C0.5,22.854 1.755,24 3.831,24L21.993,24C23.963,24 25.323,22.854 25.323,20.991L25.323,20.741L31.054,23.785L31.054,18.95L17.73,12L31.057,4.979L31.056,4.979ZM13.11,14.363L22.962,19.523L3.22,19.523L13.108,14.363L13.11,14.363ZM22.89,4.478L13.109,9.6L3.222,4.478L22.89,4.478Z" style="fill-rule:nonzero;"/>
    </g>
</svg>
