<?xml version="1.0" encoding="UTF-8" standalone="no"?>
<!DOCTYPE svg PUBLIC "-//W3C//DTD SVG 1.1//EN" "http://www.w3.org/Graphics/SVG/1.1/DTD/svg11.dtd">
<svg width="100%" height="100%" viewBox="0 0 301 301" version="1.1" xmlns="http://www.w3.org/2000/svg" xmlns:xlink="http://www.w3.org/1999/xlink" xml:space="preserve" xmlns:serif="http://www.serif.com/" style="fill-rule:evenodd;clip-rule:evenodd;stroke-linejoin:round;stroke-miterlimit:2;">
    <g id="g1372" transform="matrix(2.439016,0.000091,0,2.439024,-0.075613,-6.373282)">
        <g id="g1343" transform="matrix(1,0,0,1,-12.909062,1.089192)">
            <g id="g1954" transform="matrix(0.16123,-0,0,0.160487,10.853735,1.281222)">
                <g id="g350" transform="matrix(6.011987,0,0,6.934419,-64.751946,-9.829593)">
                    <path id="path40" d="M78.984,1.68C43.918,0.469 14.361,24.208 12.974,54.705C11.58,85.203 38.882,110.903 73.945,112.115C109.012,113.327 138.561,89.588 139.955,59.089C141.342,28.592 114.046,2.888 78.984,1.68ZM105.805,82.633C105.015,83.846 103.477,84.451 101.978,84.269C101.519,84.213 101.06,84.082 100.631,83.87C92.233,79.713 83.08,77.006 73.427,75.823C63.775,74.641 54.116,75.05 44.725,77.036C42.686,77.466 40.637,76.38 40.143,74.606C39.649,72.834 40.898,71.05 42.935,70.62C53.261,68.438 63.878,67.988 74.484,69.286C85.089,70.584 95.147,73.559 104.388,78.131C106.206,79.035 106.845,81.045 105.81,82.631L105.805,82.631L105.805,82.633ZM114.157,68.127C112.861,70.208 109.866,70.985 107.472,69.859C97.645,65.237 87.005,62.201 75.849,60.837C64.692,59.473 53.506,59.842 42.594,61.929C42.002,62.04 41.415,62.06 40.846,61.989C38.865,61.747 37.17,60.464 36.716,58.661C36.129,56.348 37.814,54.059 40.474,53.549C52.536,51.24 64.901,50.832 77.225,52.336C89.543,53.842 101.303,57.196 112.164,62.307C114.563,63.433 115.451,66.034 114.157,68.12L114.157,68.127ZM123.413,51.776C122.194,53.817 119.656,54.873 117.183,54.57C116.514,54.489 115.859,54.307 115.225,54.025C103.783,48.848 91.459,45.428 78.595,43.857C65.731,42.286 52.797,42.619 40.159,44.852C36.873,45.433 33.672,43.584 33.004,40.73C32.335,37.872 34.461,35.089 37.742,34.508C51.739,32.037 66.049,31.669 80.285,33.406C94.52,35.143 108.157,38.932 120.829,44.664C123.803,46.008 124.957,49.195 123.413,51.781L123.413,51.776Z" style="fill:rgb(30,215,96);fill-rule:nonzero;"/>
                </g>
            </g>
        </g>
    </g>
</svg>
