<?xml version="1.0" encoding="UTF-8" standalone="no"?>
<!DOCTYPE svg PUBLIC "-//W3C//DTD SVG 1.1//EN" "http://www.w3.org/Graphics/SVG/1.1/DTD/svg11.dtd">
<svg width="100%" height="100%" viewBox="0 0 426 299" version="1.1" xmlns="http://www.w3.org/2000/svg" xmlns:xlink="http://www.w3.org/1999/xlink" xml:space="preserve" xmlns:serif="http://www.serif.com/" style="fill-rule:evenodd;clip-rule:evenodd;stroke-linejoin:round;stroke-miterlimit:2;">
    <g transform="matrix(2.158273,0,0,2.158273,0,-1.925176)">
        <path d="M78.918,99.541L130.043,69.874L78.918,40.352L78.918,99.541ZM21.602,134.824C13.105,132.519 6.48,125.751 4.032,117.398C0,101.989 0,69.874 0,69.874C0,69.874 0,37.76 4.032,22.495C6.48,13.998 13.105,7.373 21.602,5.069C36.867,0.892 98.504,0.892 98.504,0.892C98.504,0.892 160.286,0.892 175.551,5.069C184.192,7.373 190.672,13.998 192.977,22.495C197.153,37.76 197.153,69.874 197.153,69.874C197.153,69.874 197.153,101.989 192.977,117.398C190.672,125.751 184.192,132.519 175.551,134.824C160.286,139 98.504,139 98.504,139C98.504,139 36.867,139 21.602,134.824Z" style="fill:rgb(238,29,58);fill-rule:nonzero;"/>
        <path d="M78.918,99.541L130.043,69.874L78.918,40.352L78.918,99.541Z" style="fill:white;fill-rule:nonzero;"/>
    </g>
</svg>
